# xmcd
#
# Track frame offsets:
#	150
#	12805
#	22917
#	33042
#	43495
#	55747
#	69120
#	82227
#	94745
#	108125
#	120802
#	132270
#	144415
#	160042
#	171730
#	185297
#	200205
#	215955
#	229395
#	240580
#	253772
#	267365
#
# Disc length: 3732
#
# Revision: 1
# Processed by: cddbd v1.5.1PL0 Copyright (c) Steve Scherf et al.
# Submitted via: CDex 1.50
# Normalized: r0:DSETVAR1,TDELIM( - )
#
DISCID=350e9216
DTITLE=Various Artist - Chicago Bloues of the 1960's
DYEAR=1997
DGENRE=Blues
TTITLE0=Crossroads - Homesick James
TTITLE1=You Can't Love Me - TV Slim
TTITLE2=I Feel So Good - JB Lenoir
TTITLE3=Honky Tonky - Koko Taylor
TTITLE4=The Way I Feel - Detroit Junior
TTITLE5=Call My Job - Detroit Junior
TTITLE6=Too Many Crooks - Jesse Fortune
TTITLE7=Good Things - Jesse Fortune
TTITLE8=Heavy Heart Beat - Jesse Fortune
TTITLE9=Oh Momma - Lillian Offit
TTITLE10=I Cry For You - Harold Burrage
TTITLE11=Say You're Leaving - Fenton Robinson
TTITLE12=New Orleans Blues - Willie Mabon
TTITLE13=Some More - Willie Mabon
TTITLE14=Something For Nothing - Willie Mabon
TTITLE15=Hard Times - Mighty Joe Young
TTITLE16=Rambling Woman - Big Moose
TTITLE17=You Better Stop - Andrew Brown
TTITLE18=Somebody Gotta Pay - Willie Mabon
TTITLE19=Some Time I Wonder - Willie Mabon
TTITLE20=My Baby's Sweet - Homesick James
TTITLE21=Like Heaven To Me - Koko Taylor
EXTD=YEAR: 1997
EXTT0=
EXTT1=
EXTT2=
EXTT3=
EXTT4=
EXTT5=
EXTT6=
EXTT7=
EXTT8=
EXTT9=
EXTT10=
EXTT11=
EXTT12=
EXTT13=
EXTT14=
EXTT15=
EXTT16=
EXTT17=
EXTT18=
EXTT19=
EXTT20=
EXTT21=
PLAYORDER=
